<svg width="30" height="31" viewBox="0 0 30 31" fill="none" xmlns="http://www.w3.org/2000/svg">
<path d="M15 30.5C10.8333 30.5 7.29167 29.0417 4.375 26.125C1.45833 23.2083 0 19.6667 0 15.5C0 11.3333 1.45833 7.79167 4.375 4.875C7.29167 1.95833 10.8333 0.5 15 0.5C15.3889 0.5 15.7708 0.513889 16.1458 0.541667C16.5208 0.569444 16.8889 0.611111 17.25 0.666667C16.1111 1.47222 15.2014 2.52083 14.5208 3.8125C13.8403 5.10417 13.5 6.5 13.5 8C13.5 10.5 14.375 12.625 16.125 14.375C17.875 16.125 20 17 22.5 17C24.0278 17 25.4306 16.6597 26.7083 15.9792C27.9861 15.2986 29.0278 14.3889 29.8333 13.25C29.8889 13.6111 29.9306 13.9792 29.9583 14.3542C29.9861 14.7292 30 15.1111 30 15.5C30 19.6667 28.5417 23.2083 25.625 26.125C22.7083 29.0417 19.1667 30.5 15 30.5ZM15 27.1667C17.4444 27.1667 19.6389 26.4931 21.5833 25.1458C23.5278 23.7986 24.9444 22.0417 25.8333 19.875C25.2778 20.0139 24.7222 20.125 24.1667 20.2083C23.6111 20.2917 23.0556 20.3333 22.5 20.3333C19.0833 20.3333 16.1736 19.1319 13.7708 16.7292C11.3681 14.3264 10.1667 11.4167 10.1667 8C10.1667 7.44444 10.2083 6.88889 10.2917 6.33333C10.375 5.77778 10.4861 5.22222 10.625 4.66667C8.45833 5.55556 6.70139 6.97222 5.35417 8.91667C4.00694 10.8611 3.33333 13.0556 3.33333 15.5C3.33333 18.7222 4.47222 21.4722 6.75 23.75C9.02778 26.0278 11.7778 27.1667 15 27.1667Z" fill="white"/>
</svg>
