<svg width="30" height="31" viewBox="0 0 30 31" fill="none" xmlns="http://www.w3.org/2000/svg">
<path d="M13.6364 5.95455V0.5H16.3636V5.95455H13.6364ZM22.7045 9.70455L20.8295 7.82955L24.6477 3.90909L26.5568 5.85227L22.7045 9.70455ZM24.5455 16.8636V14.1364H30V16.8636H24.5455ZM13.6364 30.5V25.0455H16.3636V30.5H13.6364ZM7.29545 9.63636L3.40909 5.85227L5.35227 3.94318L9.20455 7.79545L7.29545 9.63636ZM24.6136 27.0909L20.8295 23.1705L22.6705 21.3295L26.5568 25.0795L24.6136 27.0909ZM0 16.8636V14.1364H5.45455V16.8636H0ZM5.35227 27.0909L3.44318 25.1477L7.26136 21.3295L8.25 22.25L9.23864 23.2045L5.35227 27.0909ZM15 23.6818C12.7273 23.6818 10.7955 22.8864 9.20455 21.2955C7.61364 19.7045 6.81818 17.7727 6.81818 15.5C6.81818 13.2273 7.61364 11.2955 9.20455 9.70455C10.7955 8.11364 12.7273 7.31818 15 7.31818C17.2727 7.31818 19.2045 8.11364 20.7955 9.70455C22.3864 11.2955 23.1818 13.2273 23.1818 15.5C23.1818 17.7727 22.3864 19.7045 20.7955 21.2955C19.2045 22.8864 17.2727 23.6818 15 23.6818ZM15 20.9545C16.5 20.9545 17.7841 20.4205 18.8523 19.3523C19.9205 18.2841 20.4545 17 20.4545 15.5C20.4545 14 19.9205 12.7159 18.8523 11.6477C17.7841 10.5795 16.5 10.0455 15 10.0455C13.5 10.0455 12.2159 10.5795 11.1477 11.6477C10.0795 12.7159 9.54545 14 9.54545 15.5C9.54545 17 10.0795 18.2841 11.1477 19.3523C12.2159 20.4205 13.5 20.9545 15 20.9545Z" fill="white"/>
</svg>
