<svg width="66" height="63" viewBox="0 0 66 63" fill="none" xmlns="http://www.w3.org/2000/svg">
<path d="M14.689 35.1139C14.689 35.1139 2.21342 36.7237 0.603659 23.4432C0.603659 23.4432 0.603659 13.3822 9.85976 12.5773C9.85976 12.5773 14.6891 12.5773 20.3232 14.1871V39.9432C20.3232 39.9432 20.122 42.1566 18.1098 43.3639C18.1098 43.3639 14.8903 46.181 7.24391 43.7664C7.24391 43.7664 6.03659 43.3639 7.24391 44.5712C7.24391 44.5712 8.04879 45.7785 13.2805 45.7785C18.5122 45.7785 20.9269 42.9615 20.9269 42.9615C20.9269 42.9615 23.3415 40.9493 23.7439 38.1322V15.1932C23.7439 15.1932 27.3659 16.4005 30.183 16.4005C33 16.4005 35.8171 14.7907 35.8171 14.7907C35.8171 14.7907 37.8293 13.5834 38.6342 11.9736C39.4391 10.3639 39.8415 9.559 39.8415 8.35169C39.8415 7.14437 39.4391 5.53461 38.6342 4.32729C37.8293 3.11998 37.0244 1.10778 32.5976 0.302902C32.5976 0.302902 29.3781 0.302902 28.1708 3.11998C28.1708 3.11998 30.5854 1.51022 32.5976 1.51022C34.6098 1.51022 36.622 3.11998 36.622 3.11998C36.622 3.11998 39.0366 4.72973 39.0366 7.94925C39.0366 11.1688 35.8171 12.3761 35.8171 12.3761C35.8171 12.3761 33.4025 13.5834 30.9878 13.5834C28.5732 13.5834 28.5732 13.5834 28.5732 13.5834C28.5732 13.5834 16.9024 9.559 12.8781 9.559C12.8781 9.559 7.24391 8.75413 2.81707 14.7907C2.81707 14.7907 0 19.2175 0 23.2419C0 23.2419 0.402439 26.8639 1.20732 28.8761C1.20732 28.8761 4.82927 36.5224 10.8659 36.5224C10.8659 36.5224 13.6829 36.5224 14.8903 35.3151C14.8903 35.3151 15.6951 34.5102 14.689 35.1139Z" fill="white"/>
<path d="M25.7561 42.559L28.9756 39.3395V18.8151H33.5231C33.5231 18.8151 39.0365 18.8151 39.0365 23.6444C39.0365 23.6444 38.8353 27.9907 33.6841 28.031L31.3902 28.0712V28.8761H32.5975C32.5975 28.8761 38.6341 30.5663 39.0365 39.7822V50.4468C39.0365 50.4468 39.0365 56.242 43.8658 59.059C43.8658 59.059 48.6951 62.681 53.1219 62.681C53.1219 62.681 56.3414 63.0834 60.7683 59.8639C60.7683 59.8639 65.5975 55.4371 66 52.2176V48.8371C66 48.8371 65.5975 45.7786 63.1829 44.5712C63.1829 44.5712 62.378 44.1688 63.1829 45.3761C63.1829 45.3761 63.9878 46.9859 63.9878 48.1932V50.6078C63.9878 50.6078 63.5853 54.6322 61.9756 56.6444C61.9756 56.6444 59.1585 61.8761 53.5244 61.8761C53.5244 61.8761 45.878 61.4737 43.8658 56.6444C43.8658 56.6444 42.6585 54.2298 42.2561 49.4005L41.8536 39.3395C41.8536 39.3395 41.4512 34.1078 39.0365 31.6932C39.0365 31.6932 37.4268 29.2785 34.6097 28.8761V28.4737C34.6097 28.4737 39.439 28.4737 40.6463 26.059C40.6463 26.059 41.8536 24.4493 41.8536 23.2419C41.8536 23.2419 41.8536 21.2297 39.8414 19.62C39.8414 19.62 38.2317 18.0102 35.0122 18.0102C31.7926 18.0102 25.1926 18.0102 25.1926 18.0102L25.7561 18.8151V42.559Z" fill="white"/>
</svg>
